<svg xmlns="http://www.w3.org/2000/svg" xmlns:xlink="http://www.w3.org/1999/xlink" version="1.1" x="0px" y="0px" viewBox="0 0 100 125" enable-background="new 0 0 100 100" xml:space="preserve"><path fill="#ffffff" d="M23.794,73.659c1.493-1.085,2.47-2.84,2.47-4.823c0-3.289-2.676-5.965-5.965-5.965s-5.965,2.676-5.965,5.965  c0,1.983,0.977,3.738,2.47,4.823c-4.231,1.456-7.284,5.467-7.284,10.187v0.283c0,1.104,0.896,2,2,2h17.559c1.104,0,2-0.896,2-2  v-0.283C31.078,79.127,28.025,75.115,23.794,73.659z M20.299,66.871c1.083,0,1.965,0.881,1.965,1.965s-0.881,1.965-1.965,1.965  s-1.965-0.881-1.965-1.965S19.216,66.871,20.299,66.871z M13.74,82.129c0.762-2.91,3.414-5.063,6.559-5.063s5.797,2.153,6.559,5.063  H13.74z"/><path fill="#ffffff" d="M66.575,23.58H21.119c-1.104,0-2,0.896-2,2s0.896,2,2,2h45.457c1.104,0,2-0.896,2-2  S67.68,23.58,66.575,23.58z"/><path fill="#ffffff" d="M86.505,47.044v-2.045c0-5.174-3.294-9.58-7.889-11.268v-8.454c0-6.289-5.117-11.406-11.406-11.406H20.484  c-6.196,0-11.204,4.849-11.4,11.039c0,0.001,0,0.002,0,0.003c-0.001,0.021-0.006,0.04-0.006,0.06v34.897c0,1.104,0.896,2,2,2  s2-0.896,2-2V33.898c2.128,1.913,4.932,3.088,8.013,3.088h53.401c0.438,0,0.865,0.045,1.284,0.113c0.256,0.119,0.539,0.19,0.84,0.19  c0.008,0,0.016-0.002,0.023-0.002c3.377,0.942,5.866,4.038,5.866,7.712v1.944H67.756c-3.002,0-5.445,2.443-5.445,5.445v9.106  c0,3.003,2.443,5.446,5.445,5.446h14.804c-0.034,0.145-0.055,0.295-0.055,0.451v6.129c0,4.418-3.595,8.013-8.013,8.013h-36.57  c-1.104,0-2,0.896-2,2s0.896,2,2,2h36.57c6.624,0,12.013-5.389,12.013-12.013v-6.129c0-0.188-0.034-0.366-0.083-0.539  c2.552-0.45,4.499-2.678,4.499-5.358v-9.106C90.922,49.738,89.017,47.527,86.505,47.044z M21.091,32.986  c-4.396,0-7.973-3.558-8.009-7.945c0-0.001,0-0.003,0-0.004c0.127-4.019,3.378-7.166,7.402-7.166H67.21  c4.083,0,7.406,3.322,7.406,7.406v7.716c-0.042,0-0.082-0.006-0.124-0.006H21.091z M86.922,61.494c0,0.797-0.648,1.446-1.446,1.446  h-17.72c-0.797,0-1.445-0.648-1.445-1.446v-9.106c0-0.797,0.648-1.445,1.445-1.445h17.72c0.797,0,1.446,0.648,1.446,1.445V61.494z"/><circle fill="#ffffff" cx="73.171" cy="56.942" r="2.953"/></svg>