<svg xmlns:dc="http://purl.org/dc/elements/1.1/" xmlns:cc="http://creativecommons.org/ns#" xmlns:rdf="http://www.w3.org/1999/02/22-rdf-syntax-ns#" xmlns:svg="http://www.w3.org/2000/svg" xmlns="http://www.w3.org/2000/svg" xmlns:sodipodi="http://sodipodi.sourceforge.net/DTD/sodipodi-0.dtd" xmlns:inkscape="http://www.inkscape.org/namespaces/inkscape" version="1.1" x="0px" y="0px" viewBox="0 0 100 125"><g transform="translate(0,-952.36218)"><path style="text-indent:0;text-transform:none;direction:ltr;block-progression:tb;baseline-shift:baseline;color:#ffffff;enable-background:accumulate;" d="M 7.6875,957.36625 A 3.0003,3.0001643 0 0 0 5,960.36612 l 0,83.99618 a 3.0003,3.0001643 0 0 0 3,2.9999 l 84,0 a 3.0003,3.0001643 0 0 0 3,-2.9999 l 0,-83.99618 a 3.0003,3.0001643 0 0 0 -3,-2.99987 l -84,0 a 3.0003,3.0001643 0 0 0 -0.3125,0 z m 3.3125,5.99973 78,0 0,77.99652 -78,0 0,-77.99652 z m 15,1.99991 c -7.144168,0 -13,5.85556 -13,12.99941 0,7.14385 5.855832,12.99941 13,12.99941 7.144168,0 13,-5.85556 13,-12.99941 0,-7.14385 -5.855832,-12.99941 -13,-12.99941 z m 17.6875,0 A 3.0040663,3.0039304 0 1 0 44,971.36562 l 40,0 a 3.0003,3.0001643 0 1 0 0,-5.99973 l -40,0 a 3.0003,3.0001643 0 0 0 -0.3125,0 z M 26,971.36562 c 3.901527,0 7,3.09833 7,6.99968 0,3.90135 -3.098473,6.99968 -7,6.99968 -3.901527,0 -7,-3.09833 -7,-6.99968 0,-3.90135 3.098473,-6.99968 7,-6.99968 z m 17.6875,3.99982 A 3.0040663,3.0039304 0 1 0 44,981.36517 l 40,0 a 3.0003,3.0001643 0 1 0 0,-5.99973 l -40,0 a 3.0003,3.0001643 0 0 0 -0.3125,0 z m 0,9.99954 A 3.0040663,3.0039304 0 1 0 44,991.36471 l 40,0 a 3.0003,3.0001643 0 1 0 0,-5.99973 l -40,0 a 3.0003,3.0001643 0 0 0 -0.3125,0 z m -28,7.99964 A 3.0003,3.0001643 0 0 0 13,996.36449 l 0,39.99821 a 3.0003,3.0001643 0 0 0 3,2.9998 l 68,0 a 3.0003,3.0001643 0 0 0 3,-2.9998 l 0,-39.99821 a 3.0003,3.0001643 0 0 0 -3,-2.99987 l -68,0 a 3.0003,3.0001643 0 0 0 -0.3125,0 z m 3.3125,5.99973 62,0 0,33.99845 -62,0 0,-33.99845 z m 43.875,3.96855 a 3.0003,3.0001643 0 0 0 -2.0625,0.9375 l -16.46875,17.3429 -4.875,-6.9684 a 3.0081556,3.0080195 0 1 0 -4.9375,3.4374 l 7,9.9995 a 3.0003,3.0001643 0 0 0 4.65625,0.3437 l 19,-19.9991 a 3.0003,3.0001643 0 0 0 -2.3125,-5.0935 z" fill="#ffffff" fill-opacity="1" stroke="none" marker="none" visibility="visible" display="inline" overflow="visible"/></g></svg>